<svg xmlns="http://www.w3.org/2000/svg" xml:space="preserve" style="enable-background:new 0 0 330.013 330.013" viewBox="0 0 330.01 330.01">
  <path d="M285.02 169.95h.32-.33zm-19.56-1.63-1.11-.2h.04l.45.1.62.1zm-11.02-2.78-.81-.26.13.05.32.1.36.11zm-1.62-.52-.77-.25.33.1c.02.02.04.02.07.03l.37.12zm10.58 2.9-1.05-.23h.02l.3.07.73.16zm-3.82-.9-.93-.24.15.04.13.04.65.16zm10.36 2.01-1.27-.17h.02l.48.07.77.1zm-8.5-1.55-.98-.23.07.02.4.1.51.11zm-3.64-.94-.89-.25.1.03.36.1.43.12zm-7.53-2.36.66.22.24.08-.9-.3zm16.23 4.33h-.05l.32.05.86.14-1.13-.19zm18.5 31.33c-.53 0-1.07.03-1.6.09h3.2c-.52-.06-1.05-.09-1.58-.09z" style="fill:#d3831f"/>
  <path d="M305 199.93H25a15 15 0 0 0 0 30h280a15 15 0 0 0 0-30z" style="fill:#f0d03d"/>
  <path d="M329.24 145.2a15 15 0 0 0-18.98-9.48 84.31 84.31 0 0 1-10.24 2.93 73.5 73.5 0 0 1-15 1.3H285c-6.45 0-11.07-.5-15-1.3l-.6-.12-.63-.14-.74-.18-.6-.14a38.12 38.12 0 0 1-.73-.2l-.58-.15-.7-.2a78.77 78.77 0 0 1-1.17-.35l-.05-.01a59.22 59.22 0 0 1-.95-.3h-.05l-.19-.07-.72-.23-.26-.08-2.29-.76c-5.07-1.69-10.56-3.52-18.23-4.66a112.2 112.2 0 0 0-16.51-1.11c-17.44 0-26.64 3.07-34.75 5.77-7.09 2.36-12.69 4.23-25.25 4.23-12.57 0-18.17-1.87-25.26-4.23-8.11-2.7-17.31-5.77-34.74-5.77-8.72 0-15.38.77-20.87 1.87a64 64 0 0 0-2.27.5l-.24.05c-.68.16-1.35.32-2 .5h-.03c-2.54.66-4.83 1.37-7 2.08l-.4.13-1.69.56-.25.08a322.26 322.26 0 0 1-2.83.93l-1 .32-.46.14-.8.25-.55.15c-.24.07-.49.15-.74.21l-.58.16-.72.19-.62.15-.72.17-.65.14-.6.13c-3.92.8-8.53 1.29-14.98 1.29-6.46 0-11.08-.5-15-1.3a82.64 82.64 0 0 1-10.25-2.93 15 15 0 0 0-9.49 28.46c5.4 1.8 11.28 3.75 19.73 4.86 4.26.56 9.16.9 15 .9H45a141.79 141.79 0 0 0 5.06-.08l.36-.02 1.45-.06.74-.05c.33-.02.67-.03 1-.06l.83-.06.86-.06.87-.08.75-.07.95-.1.6-.07.95-.11.57-.07.92-.13.52-.07.1-.02a95.24 95.24 0 0 0 2.04-.32l.43-.08.5-.1c.44-.08.88-.15 1.3-.24l.08-.01 1.78-.38.16-.04.27-.06 1.09-.26.56-.14h.05l1.62-.43h.02l.09-.03a124.5 124.5 0 0 0 1.8-.51l.03-.01a105.59 105.59 0 0 0 1.53-.46l.31-.1h.03l1.4-.45h.02l1.43-.48h.02l.34-.11 1.32-.44c2.65-.89 5.1-1.7 7.8-2.38 4.47-1.12 9.6-1.85 17.45-1.85 10.31 0 15.93 1.25 21.53 3a156.08 156.08 0 0 1 3.73 1.23c8.11 2.7 17.3 5.77 34.74 5.77s26.63-3.07 34.74-5.77c5.76-1.92 10.54-3.52 18.87-4.05 1.92-.12 4.03-.18 6.4-.18 12.56 0 18.16 1.86 25.25 4.23a321.2 321.2 0 0 0 1.31.43l.35.12.12.04.77.25.81.26.81.26.38.12.33.1.1.03a97.45 97.45 0 0 0 1.67.5l.88.25.42.12.37.1.06.02.93.24.65.17h.02l.21.06.98.23.48.11.43.1 1.06.23.73.15.07.02.14.02c.36.08.74.14 1.11.21l.55.1.44.08.06.01 1.13.19.84.13.12.02h.07c.41.07.85.12 1.27.18l1.08.14c.44.06.9.1 1.37.15l1.11.12 1.49.12 1.14.1 1.66.1 1.13.05 1.98.07c.33.01.64.03.98.03 1.01.03 2.06.04 3.13.04h.34a117.2 117.2 0 0 0 14.67-.9c8.46-1.12 14.34-3.07 19.74-4.87a15 15 0 0 0 9.49-18.97z" style="fill:#75b26d"/>
  <path d="M258.95 59.4c-18.6-13.95-41.64-23.28-66.62-27.2a172.95 172.95 0 0 0-27.2-2.11H165c-35.27.02-68.58 10.43-93.81 29.3C44.63 79.27 30 106.1 30 134.95v3.7c3.93.8 8.54 1.3 15 1.3h.01c6.45 0 11.06-.5 14.99-1.3l.6-.12.64-.14.73-.17.61-.15.73-.2.58-.15.73-.2.55-.16.8-.25.46-.14c.33-.1.67-.2 1-.32l.25-.07 2.58-.86a137.91 137.91 0 0 1 11.21-3.31l.53-.12a86 86 0 0 1 1.72-.38l.8-.16c.5-.1 1-.2 1.52-.28l.74-.13 1.24-.2.73-.11 1.88-.25.64-.08c.56-.06 1.13-.13 1.7-.18l.56-.06 2.24-.19.62-.04c.71-.05 1.44-.1 2.2-.13l.33-.01a129.53 129.53 0 0 1 6.09-.14c1.53 0 2.97.03 4.37.08 14.64.46 22.97 3.22 30.37 5.69 7.09 2.36 12.69 4.23 25.26 4.23 12.56 0 18.16-1.87 25.25-4.23 8.12-2.7 17.31-5.77 34.75-5.77 6.54 0 11.92.43 16.52 1.11 2.87.43 5.44.95 7.8 1.53 3.92.96 7.25 2.07 10.42 3.13l.46.15 1.48.49.35.11.26.09.73.23.18.06.35.11.26.08.4.12.05.01a126.44 126.44 0 0 0 1.04.31l.15.05.67.19.6.16.71.18.6.15.75.18.62.13c.2.05.4.1.61.13 3.93.8 8.54 1.3 15 1.3 6.46 0 11.08-.5 15-1.3v-3.7c0-28.85-14.58-55.68-41.07-75.55zM285 229.93H30v5c0 35.84 29.17 65 65 65h140c35.85 0 65-29.16 65-65v-5h-15z" style="fill:#e29229"/>
  <path d="M285.34 169.95h-.33c-1.08 0-2.12-.01-3.14-.03l-.97-.04c-.67-.02-1.34-.03-1.98-.06l-1.13-.07-1.66-.1c-.4-.02-.76-.06-1.15-.09l-1.48-.12-1.12-.12-1.37-.15-1.07-.14-.77-.1-.48-.07h-.02l-.07-.01-.13-.02-.84-.13-.85-.14-.33-.05-.45-.08-.54-.1-.61-.12-.46-.09h-.04a8.75 8.75 0 0 0-.22-.04l-.73-.16-.74-.15-.3-.07h-.01l-.44-.1-.47-.12-.5-.12-.41-.1-.07-.01-.2-.05h-.03l-.65-.18-.64-.16-.13-.04-.16-.04-.06-.02-.38-.1-.41-.12-.43-.12-.36-.1-1.87-.56-.33-.1-.37-.12-.36-.11-.32-.1-.13-.05-.8-.26-.38-.12-.07-.02-.45-.15-.35-.11-.4-.14-.25-.08-.04-.01-.62-.21c-7.09-2.36-12.69-4.23-25.26-4.23-2.36 0-4.47.06-6.39.19-8.33.53-13.1 2.12-18.87 4.04-8.11 2.7-17.3 5.77-34.74 5.77-17.43 0-26.63-3.07-34.74-5.77l-1.32-.44c-6.5-2.15-12.16-3.8-23.94-3.8-7.85 0-12.98.74-17.46 1.86a104.5 104.5 0 0 0-7.8 2.38l-1.28.43-.39.12-1.43.47h-.02a111.85 111.85 0 0 1-3.27 1.02h-.03a89.6 89.6 0 0 1-7.44 1.86l-.08.01a93.3 93.3 0 0 1-4.26.75l-.1.01a107.02 107.02 0 0 1-16.44 1.1c-5.85 0-10.75-.35-15-.9v30.88h253.4a14.97 14.97 0 0 1 3.18 0h13.42v-30.89c-4.17.55-8.98.9-14.67.9z" style="fill:#d7380e"/>
  <path d="M71.2 59.4C44.63 79.26 30 106.1 30 134.94v3.7c3.93.8 8.54 1.3 15 1.3h.01c6.45 0 11.06-.5 14.99-1.3l.6-.12.64-.14.73-.17.61-.15.73-.2.58-.15.73-.2.55-.16.8-.25.46-.14c.33-.1.67-.2 1-.32l.25-.07 2.58-.86a137.91 137.91 0 0 1 11.21-3.31l.53-.12a86 86 0 0 1 1.72-.38l.8-.16c.5-.1 1-.2 1.52-.28l.74-.13 1.24-.2.73-.11 1.88-.25.64-.08c.56-.06 1.13-.13 1.7-.18l.56-.06 2.24-.19.62-.04c.71-.05 1.44-.1 2.2-.13l.33-.01a129.53 129.53 0 0 1 6.09-.14c1.53 0 2.97.03 4.37.08 14.64.46 22.97 3.22 30.37 5.69 7.09 2.36 12.69 4.23 25.26 4.23V30.09c-35.26.02-68.57 10.43-93.81 29.3zM45 229.93H30v5c0 35.84 29.17 65 65 65h70v-70H45z" style="fill:#d3831f"/>
  <path d="M128.95 163.74c-6.5-2.15-12.16-3.8-23.94-3.8-7.86 0-12.99.74-17.46 1.86a104.5 104.5 0 0 0-7.8 2.38l-1.28.43-.4.12-1.42.47h-.02a111.85 111.85 0 0 1-3.27 1.02l-.04.01a89.6 89.6 0 0 1-7.43 1.85l-.08.01a93.3 93.3 0 0 1-4.27.75l-.1.01a107.02 107.02 0 0 1-16.43 1.1H45c-5.84 0-10.74-.35-15-.9v30.88h135v-29.98c-17.43 0-26.62-3.06-34.73-5.77l-1.32-.44z" style="fill:#ad2e08"/>
</svg>
